<svg xmlns="http://www.w3.org/2000/svg" version="1.1" xmlns:xlink="http://www.w3.org/1999/xlink" width="200" height="200"><svg xmlns="http://www.w3.org/2000/svg" version="1.1" xmlns:xlink="http://www.w3.org/1999/xlink" width="200" height="200"><svg xmlns="http://www.w3.org/2000/svg" version="1.1" xmlns:xlink="http://www.w3.org/1999/xlink" viewBox="0 0 200 200"><rect width="200" height="200" fill="url('#gradient')"></rect><defs><linearGradient id="gradient" gradientTransform="rotate(45 0.5 0.5)"><stop offset="0%" stop-color="#79ca9f"></stop><stop offset="100%" stop-color="#fcfbf3"></stop></linearGradient></defs><g><g fill="#1d7d80" transform="matrix(1.8986402966625464,0,0,1.8986402966625464,7.961850169120524,114.05228160249878)" stroke="#2e2f30" stroke-width="0.3"><path d="M5.75 0L1.07 0L1.07-14.22L5.65-14.22Q7.54-14.22 9.04-13.36Q10.55-12.51 11.39-10.95Q12.24-9.39 12.25-7.46L12.25-7.46L12.25-6.81Q12.25-4.85 11.42-3.31Q10.60-1.76 9.10-0.88Q7.60-0.01 5.75 0L5.75 0ZM5.65-11.57L4.50-11.57L4.50-2.64L5.69-2.64Q7.17-2.64 7.96-3.69Q8.75-4.74 8.75-6.81L8.75-6.81L8.75-7.42Q8.75-9.48 7.96-10.53Q7.17-11.57 5.65-11.57L5.65-11.57ZM23.10 0L19.80 0Q19.63-0.32 19.49-0.95L19.49-0.95Q18.58 0.20 16.95 0.20L16.95 0.20Q15.46 0.20 14.41-0.71Q13.37-1.61 13.37-2.98L13.37-2.98Q13.37-4.70 14.64-5.58Q15.91-6.46 18.33-6.46L18.33-6.46L19.35-6.46L19.35-7.01Q19.35-8.47 18.09-8.47L18.09-8.47Q16.91-8.47 16.91-7.31L16.91-7.31L13.62-7.31Q13.62-8.85 14.93-9.80Q16.23-10.76 18.25-10.76Q20.27-10.76 21.45-9.78Q22.62-8.79 22.65-7.07L22.65-7.07L22.65-2.39Q22.67-0.94 23.10-0.17L23.10-0.17L23.10 0ZM17.74-2.15L17.74-2.15Q18.36-2.15 18.76-2.41Q19.17-2.68 19.35-3.01L19.35-3.01L19.35-4.70L18.39-4.70Q16.67-4.70 16.67-3.15L16.67-3.15Q16.67-2.71 16.97-2.43Q17.28-2.15 17.74-2.15ZM30-2.97L30-2.97Q30-3.39 29.56-3.64Q29.12-3.90 27.89-4.17Q26.66-4.44 25.86-4.89Q25.06-5.33 24.64-5.97Q24.22-6.60 24.22-7.42L24.22-7.42Q24.22-8.88 25.42-9.82Q26.62-10.76 28.56-10.76L28.56-10.76Q30.65-10.76 31.92-9.81Q33.19-8.87 33.19-7.32L33.19-7.32L29.89-7.32Q29.89-8.59 28.55-8.59L28.55-8.59Q28.04-8.59 27.69-8.31Q27.33-8.02 27.33-7.59L27.33-7.59Q27.33-7.15 27.76-6.88Q28.19-6.60 29.14-6.43Q30.08-6.25 30.79-6.01L30.79-6.01Q33.17-5.19 33.17-3.07L33.17-3.07Q33.17-1.62 31.89-0.71Q30.61 0.20 28.56 0.20L28.56 0.20Q27.21 0.20 26.14-0.29Q25.08-0.78 24.48-1.62Q23.89-2.46 23.89-3.39L23.89-3.39L26.96-3.39Q26.98-2.66 27.45-2.32Q27.92-1.98 28.65-1.98L28.65-1.98Q29.33-1.98 29.66-2.26Q30-2.53 30-2.97ZM37.93-15L37.93-9.43Q38.98-10.76 40.63-10.76L40.63-10.76Q42.37-10.76 43.26-9.73Q44.15-8.69 44.17-6.67L44.17-6.67L44.17 0L40.87 0L40.87-6.59Q40.87-7.43 40.53-7.83Q40.19-8.22 39.37-8.22L39.37-8.22Q38.35-8.22 37.93-7.58L37.93-7.58L37.93 0L34.64 0L34.64-15L37.93-15ZM55.81-5.36L55.81-5.20Q55.81-2.60 54.74-1.20Q53.66 0.20 51.71 0.20L51.71 0.20Q50.10 0.20 49.11-1.08L49.11-1.08L48.97 0L46.03 0L46.03-15L49.32-15L49.32-9.72Q50.23-10.76 51.69-10.76L51.69-10.76Q53.66-10.76 54.74-9.35Q55.81-7.93 55.81-5.36L55.81-5.36ZM52.51-5.40L52.51-5.40Q52.51-6.92 52.10-7.57Q51.70-8.22 50.86-8.22L50.86-8.22Q49.75-8.22 49.32-7.37L49.32-7.37L49.32-3.17Q49.74-2.33 50.88-2.33L50.88-2.33Q52.04-2.33 52.35-3.47L52.35-3.47Q52.51-4.02 52.51-5.40ZM56.86-4.82L56.85-5.38Q56.85-6.96 57.46-8.20Q58.08-9.43 59.23-10.10Q60.38-10.76 61.93-10.76L61.93-10.76Q64.31-10.76 65.67-9.29Q67.04-7.82 67.04-5.29L67.04-5.29L67.04-5.18Q67.04-2.71 65.67-1.25Q64.30 0.20 61.95 0.20L61.95 0.20Q59.70 0.20 58.33-1.16Q56.96-2.51 56.86-4.82L56.86-4.82ZM60.15-5.77L60.14-5.18Q60.14-3.71 60.60-3.03Q61.05-2.34 61.95-2.34L61.95-2.34Q63.71-2.34 63.75-5.05L63.75-5.05L63.75-5.38Q63.75-8.22 61.93-8.22L61.93-8.22Q60.28-8.22 60.15-5.77L60.15-5.77ZM77.73 0L74.44 0Q74.27-0.32 74.13-0.95L74.13-0.95Q73.22 0.20 71.59 0.20L71.59 0.20Q70.10 0.20 69.05-0.71Q68.01-1.61 68.01-2.98L68.01-2.98Q68.01-4.70 69.28-5.58Q70.55-6.46 72.97-6.46L72.97-6.46L73.98-6.46L73.98-7.01Q73.98-8.47 72.72-8.47L72.72-8.47Q71.55-8.47 71.55-7.31L71.55-7.31L68.26-7.31Q68.26-8.85 69.57-9.80Q70.87-10.76 72.89-10.76Q74.91-10.76 76.08-9.78Q77.26-8.79 77.29-7.07L77.29-7.07L77.29-2.39Q77.30-0.94 77.73-0.17L77.73-0.17L77.73 0ZM72.38-2.15L72.38-2.15Q73.00-2.15 73.40-2.41Q73.81-2.68 73.98-3.01L73.98-3.01L73.98-4.70L73.03-4.70Q71.31-4.70 71.31-3.15L71.31-3.15Q71.31-2.71 71.61-2.43Q71.91-2.15 72.38-2.15ZM85.56-10.64L85.50-7.59L84.41-7.67Q82.86-7.67 82.42-6.69L82.42-6.69L82.42 0L79.13 0L79.13-10.57L82.22-10.57L82.32-9.21Q83.15-10.76 84.64-10.76L84.64-10.76Q85.17-10.76 85.56-10.64L85.56-10.64ZM86.08-5.36L86.08-5.36Q86.08-7.87 87.17-9.32Q88.25-10.76 90.20-10.76L90.20-10.76Q91.61-10.76 92.58-9.65L92.58-9.65L92.58-15L95.88-15L95.88 0L92.92 0L92.75-1.13Q91.74 0.20 90.18 0.20L90.18 0.20Q88.29 0.20 87.19-1.25Q86.08-2.70 86.08-5.36ZM89.38-5.76L89.38-5.16Q89.38-2.34 91.02-2.34L91.02-2.34Q92.11-2.34 92.58-3.26L92.58-3.26L92.58-7.29Q92.13-8.22 91.04-8.22L91.04-8.22Q89.51-8.22 89.38-5.76L89.38-5.76Z"></path></g></g></svg></svg><style>@media (prefers-color-scheme: light) { :root { filter: none; } }
@media (prefers-color-scheme: dark) { :root { filter: none; } }
</style></svg>